HIERARCHY
ROOT Hips
{
	OFFSET -0.001795 -0.223333 0.028219
	CHANNELS 6 Xposition Yposition Zposition Zrotation Yrotation Xrotation 
	JOINT LeftUpLeg
	{
		OFFSET 0.069520 -0.091406 -0.006815
		CHANNELS 3 Zrotation Yrotation Xrotation
		JOINT LeftLeg
		{
			OFFSET 0.034277 -0.375199 -0.004496
			CHANNELS 3 Zrotation Yrotation Xrotation
			JOINT LeftFoot
			{
				OFFSET -0.013596 -0.397961 -0.043693
				CHANNELS 3 Zrotation Yrotation Xrotation
				JOINT LeftToe
				{
					OFFSET 0.026358 -0.055791 0.119288
					CHANNELS 3 Zrotation Yrotation Xrotation
					End Site
					{
						OFFSET 0.000000 0.000000 0.000000
					}
				}
			}
		}
	}
	JOINT RightUpLeg
	{
		OFFSET -0.067670 -0.090522 -0.004320
		CHANNELS 3 Zrotation Yrotation Xrotation
		JOINT RightLeg
		{
			OFFSET -0.038290 -0.382569 -0.008850
			CHANNELS 3 Zrotation Yrotation Xrotation
			JOINT RightFoot
			{
				OFFSET 0.015774 -0.398415 -0.042312
				CHANNELS 3 Zrotation Yrotation Xrotation
				JOINT RightToe
				{
					OFFSET -0.025372 -0.048144 0.123348
					CHANNELS 3 Zrotation Yrotation Xrotation
					End Site
					{
						OFFSET 0.000000 0.000000 0.000000
					}
				}
			}
		}
	}
	JOINT Spine
	{
		OFFSET -0.002533 0.108963 -0.026696
		CHANNELS 3 Zrotation Yrotation Xrotation
		JOINT Spine1
		{
			OFFSET 0.005487 0.135180 0.001092
			CHANNELS 3 Zrotation Yrotation Xrotation
			JOINT Spine2
			{
				OFFSET 0.001457 0.052922 0.025425
				CHANNELS 3 Zrotation Yrotation Xrotation
				JOINT Neck
				{
					OFFSET -0.002778 0.213870 -0.042857
					CHANNELS 3 Zrotation Yrotation Xrotation
					JOINT Head
					{
						OFFSET 0.005152 0.064970 0.051349
						CHANNELS 3 Zrotation Yrotation Xrotation
						End Site
						{
							OFFSET 0.000000 0.000000 0.000000
						}
					}
				}
				JOINT LeftShoulder
				{
					OFFSET 0.078845 0.121749 -0.034090
					CHANNELS 3 Zrotation Yrotation Xrotation
					JOINT LeftArm
					{
						OFFSET 0.090977 0.030469 -0.008868
						CHANNELS 3 Zrotation Yrotation Xrotation
						JOINT LeftForeArm
						{
							OFFSET 0.259612 -0.012772 -0.027456
							CHANNELS 3 Zrotation Yrotation Xrotation
							JOINT LeftHand
							{
								OFFSET 0.249234 0.008986 -0.001171
								CHANNELS 3 Zrotation Yrotation Xrotation
								End Site
								{
									OFFSET 0.000000 0.000000 0.000000
								}
							}
						}
					}
				}
				JOINT RightShoulder
				{
					OFFSET -0.081759 0.118833 -0.038615
					CHANNELS 3 Zrotation Yrotation Xrotation
					JOINT RightArm
					{
						OFFSET -0.096012 0.032551 -0.009143
						CHANNELS 3 Zrotation Yrotation Xrotation
						JOINT RightForeArm
						{
							OFFSET -0.253742 -0.013329 -0.021401
							CHANNELS 3 Zrotation Yrotation Xrotation
							JOINT RightHand
							{
								OFFSET -0.255298 0.007772 -0.005559
								CHANNELS 3 Zrotation Yrotation Xrotation
								End Site
								{
									OFFSET 0.000000 0.000000 0.000000
								}
							}
						}
					}
				}
			}
		}
	}
}
MOTION
Frames: 12
Frame Time: 0.050000
0.000000 0.954173 0.000000 -1.193382 -2.383147 3.581818 6.458260 -0.075996 0.608311 -5.698292 0.542750 -7.109101 5.690551 14.103031 17.077933 0.000000 0.000000 0.000000 -2.673433 0.269788 -2.271574 2.304496 -0.294085 -3.409675 -3.074911 -11.902318 16.170316 0.000000 0.000000 0.000000 -1.052289 -0.094335 3.650905 5.019251 -0.752974 -22.227459 -0.446619 -1.404135 29.454261 2.660237 -1.307177 -16.632407 0.000000 0.000000 0.000000 -22.098527 4.732725 -3.141351 -55.406585 -8.519255 -5.453456 -12.667968 -27.134514 4.847962 0.000000 0.000000 0.000000 15.503106 -0.118606 -1.431141 58.614959 8.741414 -4.224462 5.716353 36.774906 3.595627 0.000000 0.000000 0.000000 
-0.000095 0.952848 0.000392 -1.453621 -2.600633 4.742099 7.085714 -0.117869 0.201697 -6.332422 0.552344 -8.498865 5.834596 14.288549 17.236373 0.000000 0.000000 0.000000 -2.613682 0.353317 -3.253615 2.674719 -0.324382 -3.915531 -3.020253 -11.818658 16.077887 0.000000 0.000000 0.000000 -0.858178 -0.068317 2.645495 5.456524 -0.889259 -21.834217 -0.120713 -1.452772 29.095626 3.530718 -2.191793 -13.990624 0.000000 0.000000 0.000000 -22.226055 6.070788 -3.946458 -55.004693 -7.515119 -5.833797 -14.914209 -27.265870 5.454563 0.000000 0.000000 0.000000 13.851010 0.071845 -1.203901 59.401868 8.808686 -4.224076 6.498052 41.804307 4.476469 0.000000 0.000000 0.000000 
-0.000164 0.952615 0.000351 -0.725221 -2.082310 4.999707 6.723342 -0.144351 -0.403689 -7.006105 0.578066 -8.152674 5.521712 13.899373 17.258129 0.000000 0.000000 0.000000 -3.098613 0.372736 -3.447097 2.184168 -0.297600 -4.007869 -3.373225 -12.314517 15.921986 0.000000 0.000000 0.000000 -1.166849 -0.040231 2.278364 5.711390 -1.023347 -20.815290 -0.326102 -1.449017 28.274752 3.125816 -1.996375 -12.062242 0.000000 0.000000 0.000000 -21.482798 5.912187 -3.901713 -54.558810 -6.464605 -6.156389 -14.444702 -26.461212 5.102776 0.000000 0.000000 0.000000 14.637691 0.834440 -0.859192 58.342474 11.194585 -2.879706 5.075856 46.675157 4.545417 0.000000 0.000000 0.000000 
-0.000323 0.952749 0.000222 -0.837739 -2.166179 5.309108 7.461571 -0.162107 -0.536448 -8.066926 0.614466 -8.499673 5.499347 13.884593 17.544469 0.000000 0.000000 0.000000 -3.411001 0.414938 -3.953200 2.956989 -0.342559 -3.748776 -3.332630 -12.267983 15.996619 0.000000 0.000000 0.000000 -1.517353 -0.026313 2.411965 6.949001 -1.377517 -20.497815 -0.096370 -0.631516 27.929162 3.914795 -2.610723 -10.836795 0.000000 0.000000 0.000000 -21.109367 6.459608 -4.423990 -54.644574 -5.523511 -6.478572 -15.583274 -26.824053 5.410383 0.000000 0.000000 0.000000 13.606865 1.383983 -0.351337 58.293064 13.550385 -1.675404 3.776413 52.369503 4.823984 0.000000 0.000000 0.000000 
-0.000570 0.953176 -0.000216 -0.354545 -1.701294 5.412781 6.723527 -0.166940 -0.680625 -7.606227 0.578946 -8.659522 5.210395 13.545346 17.723735 0.000000 0.000000 0.000000 -3.927013 0.418384 -3.983124 3.016381 -0.351015 -3.865326 -3.580946 -12.639880 16.118830 0.000000 0.000000 0.000000 -1.149282 -0.056394 2.836724 7.155515 -1.491752 -19.759875 -0.116200 0.020386 27.369793 4.328520 -2.816150 -10.617330 0.000000 0.000000 0.000000 -19.975240 6.053472 -4.309971 -55.059170 -4.962163 -6.666094 -16.913199 -27.346704 5.791649 0.000000 0.000000 0.000000 13.998271 1.774943 -0.016934 57.400322 17.420523 0.295522 1.414506 56.991485 4.361997 0.000000 0.000000 0.000000 
-0.000900 0.953804 -0.001105 -0.172364 -1.447959 5.443883 6.728653 -0.173452 -0.720013 -7.881996 0.577712 -8.830601 4.998159 13.310318 18.018535 0.000000 0.000000 0.000000 -4.170891 0.433499 -4.215955 3.161925 -0.358961 -3.563632 -3.712408 -12.845072 16.249687 0.000000 0.000000 0.000000 -1.119453 -0.071317 3.281529 7.430922 -1.594677 -19.407227 0.751622 1.182379 27.116017 5.060089 -3.362825 -9.521095 0.000000 0.000000 0.000000 -19.758271 5.969818 -4.583608 -55.301191 -4.693461 -6.746939 -17.246067 -27.216911 5.742043 0.000000 0.000000 0.000000 13.138838 3.364786 1.043867 56.966342 22.552195 2.871845 -7.296874 58.873727 0.140660 0.000000 0.000000 0.000000 
-0.001370 0.953888 -0.002393 0.255145 -0.574435 5.836511 6.456474 -0.212930 -1.421507 -8.036213 0.562564 -8.744929 4.534358 12.766589 18.091299 0.000000 0.000000 0.000000 -4.399664 0.442051 -4.388796 2.894057 -0.351685 -3.957159 -4.174179 -13.530083 16.466307 0.000000 0.000000 0.000000 -0.846293 -0.101429 3.754725 7.554595 -1.630348 -19.182136 1.175566 1.958933 26.776687 6.062772 -4.039587 -9.289399 0.000000 0.000000 0.000000 -19.405267 5.709292 -4.729497 -55.689821 -4.579594 -6.772767 -17.542205 -27.554251 5.790877 0.000000 0.000000 0.000000 12.618334 4.703878 1.929266 56.523614 27.672042 5.510240 -14.551043 55.997033 -3.313351 0.000000 0.000000 0.000000 
-0.001993 0.953879 -0.003765 0.397758 0.428586 5.929685 6.462108 -0.247693 -1.967850 -8.104785 0.551355 -8.368507 4.054686 12.185207 17.924896 0.000000 0.000000 0.000000 -4.255715 0.433682 -4.362564 2.562073 -0.337454 -4.077949 -4.683964 -14.268530 16.654186 0.000000 0.000000 0.000000 -0.127437 -0.185754 4.736837 7.534666 -1.597108 -19.264494 1.799216 3.163290 26.410298 6.773687 -4.455683 -8.943376 0.000000 0.000000 0.000000 -19.423083 4.988370 -4.800431 -55.636761 -4.599000 -6.683476 -18.110921 -27.421388 5.751750 0.000000 0.000000 0.000000 12.228889 6.505235 3.089481 54.791886 32.621112 7.823941 -19.806874 48.073943 -4.838900 0.000000 0.000000 0.000000 
-0.002749 0.953902 -0.004937 0.747181 1.524612 6.127587 6.094725 -0.280768 -2.516786 -7.902487 0.523075 -8.175087 3.501297 11.528277 17.853356 0.000000 0.000000 0.000000 -4.234484 0.428546 -4.391183 2.068741 -0.312247 -4.237614 -5.267108 -15.109788 16.847426 0.000000 0.000000 0.000000 0.309486 -0.239640 5.230650 7.568671 -1.618696 -18.917166 2.303692 4.088158 26.235697 7.683771 -5.009378 -8.954282 0.000000 0.000000 0.000000 -18.961559 4.787571 -5.018231 -56.503614 -4.848451 -6.617010 -18.177081 -27.296687 5.615740 0.000000 0.000000 0.000000 11.976218 8.119324 4.116209 52.980178 36.898060 9.655198 -22.114387 38.301012 -4.412812 0.000000 0.000000 0.000000 
-0.003763 0.953973 -0.005756 0.892264 2.785338 6.332102 5.965695 -0.319371 -3.089404 -7.680898 0.492137 -7.945402 2.888750 10.797333 17.723743 0.000000 0.000000 0.000000 -4.089255 0.423576 -4.424560 1.810695 -0.301630 -4.322041 -5.916014 -16.037762 17.141572 0.000000 0.000000 0.000000 1.088915 -0.346413 6.086062 7.724577 -1.623777 -19.054898 2.484821 5.175265 26.172225 8.451678 -5.369330 -9.217518 0.000000 0.000000 0.000000 -18.905842 4.195775 -5.165260 -56.888559 -5.064471 -6.511725 -18.231805 -27.071296 5.430154 0.000000 0.000000 0.000000 12.051888 9.400118 5.060223 50.140452 39.853377 10.364623 -22.161785 29.183826 -3.210881 0.000000 0.000000 0.000000 
-0.005137 0.954052 -0.006293 1.100576 3.948007 6.766162 5.775160 -0.364306 -3.783404 -7.443546 0.458403 -7.883209 2.310072 10.131923 17.731583 0.000000 0.000000 0.000000 -3.993408 0.424585 -4.502035 1.547219 -0.299015 -4.761684 -6.516263 -16.885301 17.518535 0.000000 0.000000 0.000000 1.465008 -0.415303 6.646715 7.742140 -1.610882 -18.977010 2.897043 5.764957 26.142630 9.213705 -5.836365 -9.270971 0.000000 0.000000 0.000000 -18.944653 3.891810 -5.357743 -57.341515 -4.733195 -6.684229 -18.195899 -26.675810 5.232607 0.000000 0.000000 0.000000 12.054084 10.136933 5.650542 47.752488 41.438476 10.397313 -21.709063 23.455864 -2.382638 0.000000 0.000000 0.000000 
-0.006842 0.953951 -0.006440 1.155853 5.037973 7.277291 6.075437 -0.410836 -4.407639 -7.733801 0.429497 -8.050800 1.766921 9.520766 17.824327 0.000000 0.000000 0.000000 -3.814626 0.441890 -4.778007 1.468115 -0.304314 -5.000842 -7.093927 -17.693839 17.831308 0.000000 0.000000 0.000000 1.996648 -0.515645 7.331911 7.922057 -1.623722 -19.114765 2.922503 5.954396 25.935088 9.626412 -6.218735 -8.746841 0.000000 0.000000 0.000000 -19.659259 3.461043 -5.532488 -56.822748 -4.380061 -6.690167 -18.690313 -26.719125 5.280916 0.000000 0.000000 0.000000 11.785939 10.414566 5.886581 45.398708 41.592523 9.740243 -20.994786 21.018000 -1.988931 0.000000 0.000000 0.000000 
